<?xml version="1.0" standalone="no"?>
<!DOCTYPE svg PUBLIC "-//W3C//DTD SVG 20010904//EN"
 "http://www.w3.org/TR/2001/REC-SVG-20010904/DTD/svg10.dtd">
<svg version="1.0" xmlns="http://www.w3.org/2000/svg"
 width="564.000000pt" height="564.000000pt" viewBox="0 0 564.000000 564.000000"
 preserveAspectRatio="xMidYMid meet">

<g transform="translate(0.000000,564.000000) scale(0.100000,-0.100000)"
fill="#000000" stroke="none">
<path d="M0 2820 l0 -2820 718 0 719 0 67 192 c82 233 173 471 259 678 85 201
264 592 275 599 12 8 147 289 208 431 15 36 34 72 41 81 9 10 13 34 11 59 l-3
42 -110 42 c-136 53 -178 74 -281 141 -83 56 -206 176 -262 258 -49 71 -119
222 -146 317 -58 206 -82 561 -52 770 39 262 150 481 346 684 198 205 468 345
775 402 152 29 461 27 610 -3 430 -87 699 -290 888 -668 109 -219 140 -359
141 -635 1 -174 -2 -205 -23 -290 -70 -279 -198 -506 -414 -736 -103 -109
-177 -167 -271 -214 -93 -46 -95 -59 -23 -177 29 -48 71 -119 92 -158 21 -38
45 -76 52 -84 8 -7 25 -36 40 -65 14 -28 35 -64 48 -81 62 -84 264 -458 378
-701 130 -276 357 -831 357 -871 0 -11 113 -13 600 -13 l600 0 0 2820 0 2820
-2820 0 -2820 0 0 -2820z m4305 2048 c2 -7 8 -77 13 -155 4 -79 11 -145 14
-149 4 -3 31 -9 60 -13 45 -5 53 -9 56 -28 3 -21 -1 -23 -36 -23 -69 0 -81
-19 -84 -135 -3 -89 -5 -100 -22 -103 -26 -5 -33 10 -41 95 -4 42 -13 90 -21
108 -14 35 -40 45 -119 45 -54 0 -80 24 -50 47 14 10 33 12 62 8 50 -7 95 14
112 52 6 13 11 75 11 137 0 62 3 116 7 119 11 11 33 8 38 -5z m339 -624 c11
-4 16 -19 16 -43 0 -49 11 -63 56 -70 30 -5 39 -11 39 -26 0 -15 -8 -21 -30
-23 -49 -6 -56 -19 -53 -88 3 -65 -8 -91 -35 -81 -9 3 -16 28 -20 72 -4 37
-12 74 -18 81 -7 9 -31 14 -61 14 -35 0 -50 4 -55 16 -9 23 9 35 61 39 61 5
66 9 66 59 0 53 6 61 34 50z m-3320 -1730 c3 -9 6 -73 6 -142 1 -162 7 -172
103 -172 77 0 97 -6 97 -30 0 -22 -27 -30 -105 -30 -53 -1 -62 -4 -79 -27 -17
-23 -18 -38 -13 -134 4 -88 3 -110 -9 -120 -29 -24 -43 9 -50 126 -10 152 -11
154 -139 155 -107 0 -129 7 -123 36 3 17 15 19 113 22 146 3 145 2 145 166 0
66 3 131 6 144 7 25 39 30 48 6z m309 -551 c6 -16 17 -32 24 -36 18 -11 16
-44 -2 -51 -8 -3 -15 -15 -15 -26 0 -26 -40 -28 -47 -1 -2 10 -16 24 -29 30
-29 13 -31 27 -4 43 11 7 20 22 20 34 0 43 35 47 53 7z"/>
<path d="M3594 3356 c-41 -18 -74 -66 -74 -108 0 -27 6 -37 29 -51 37 -21 63
-22 108 0 38 18 73 65 73 99 0 27 -39 62 -75 69 -17 3 -44 -1 -61 -9z"/>
<path d="M1942 3219 c-44 -28 -59 -91 -30 -126 34 -41 121 -33 159 15 64 82
-37 169 -129 111z"/>
<path d="M3340 3044 c-149 -151 -353 -236 -602 -249 -95 -6 -125 -3 -190 14
-91 24 -165 57 -248 113 -63 42 -101 46 -114 12 -15 -39 59 -103 189 -165 123
-58 191 -73 330 -71 273 2 509 91 676 254 71 69 90 107 69 133 -23 28 -54 16
-110 -41z"/>
</g>
</svg>
